<mxfile host="app.diagrams.net" modified="2021-07-07T07:44:20.378Z" agent="5.0 (Macintosh; Intel Mac OS X 10_15_7) AppleWebKit/537.36 (KHTML, like Gecko) Chrome/91.0.4472.114 Safari/537.36" etag="S4F7e4nZqXg4UaGwzg3g" version="14.8.4" type="github">
  <diagram id="ldL86o38puUB_D25Ix0b" name="Page-1">
    <mxGraphModel dx="2893" dy="1153" grid="1" gridSize="10" guides="1" tooltips="1" connect="0" arrows="0" fold="1" page="1" pageScale="1" pageWidth="827" pageHeight="1169" math="0" shadow="0">
      <root>
        <mxCell id="0" />
        <mxCell id="1" parent="0" />
        <mxCell id="llm-Sv5bOsCH1gsNNvd9-110" value="&lt;span style=&quot;&quot;&gt;Complete project execution&lt;/span&gt;" style="rounded=0;whiteSpace=wrap;html=1;strokeColor=#D6D6D6;fillColor=#f7c382;align=left;spacingLeft=10;" vertex="1" parent="1">
          <mxGeometry x="-610" y="280" width="560" height="30" as="geometry" />
        </mxCell>
        <mxCell id="llm-Sv5bOsCH1gsNNvd9-111" value="Tensor设计、Kernel及API形式统一" style="rounded=0;whiteSpace=wrap;html=1;strokeColor=#D6D6D6;fillColor=#FBE1C0;align=left;spacingLeft=10;" vertex="1" parent="1">
          <mxGeometry x="-570" y="310" width="280" height="30" as="geometry" />
        </mxCell>
        <mxCell id="llm-Sv5bOsCH1gsNNvd9-112" value="&lt;span&gt;Subtask&lt;/span&gt;" style="rounded=0;whiteSpace=wrap;html=1;strokeColor=#D6D6D6;fillColor=#FFFFFF;align=left;spacingLeft=10;" vertex="1" parent="1">
          <mxGeometry x="-570" y="340" width="280" height="30" as="geometry" />
        </mxCell>
        <mxCell id="llm-Sv5bOsCH1gsNNvd9-113" value="&lt;span&gt;…&lt;/span&gt;" style="rounded=0;whiteSpace=wrap;html=1;strokeColor=#D6D6D6;fillColor=#FFFFFF;align=left;spacingLeft=10;" vertex="1" parent="1">
          <mxGeometry x="-570" y="400" width="280" height="30" as="geometry" />
        </mxCell>
        <mxCell id="llm-Sv5bOsCH1gsNNvd9-114" value="&lt;span&gt;…&lt;/span&gt;" style="rounded=0;whiteSpace=wrap;html=1;strokeColor=#D6D6D6;fillColor=#FFFFFF;align=left;spacingLeft=10;" vertex="1" parent="1">
          <mxGeometry x="-570" y="460" width="280" height="30" as="geometry" />
        </mxCell>
        <mxCell id="llm-Sv5bOsCH1gsNNvd9-115" value="&lt;span&gt;…&lt;/span&gt;" style="rounded=0;whiteSpace=wrap;html=1;strokeColor=#D6D6D6;fillColor=#FFFFFF;align=left;spacingLeft=10;" vertex="1" parent="1">
          <mxGeometry x="-570" y="490" width="280" height="30" as="geometry" />
        </mxCell>
        <mxCell id="llm-Sv5bOsCH1gsNNvd9-116" value="&lt;span&gt;…&lt;/span&gt;" style="rounded=0;whiteSpace=wrap;html=1;strokeColor=#D6D6D6;fillColor=#FBE1C0;align=left;spacingLeft=10;" vertex="1" parent="1">
          <mxGeometry x="-570" y="520" width="280" height="30" as="geometry" />
        </mxCell>
        <mxCell id="llm-Sv5bOsCH1gsNNvd9-117" value="&lt;span&gt;…&lt;/span&gt;" style="rounded=0;whiteSpace=wrap;html=1;strokeColor=#D6D6D6;fillColor=#FFFFFF;align=left;spacingLeft=10;" vertex="1" parent="1">
          <mxGeometry x="-570" y="550" width="280" height="30" as="geometry" />
        </mxCell>
        <mxCell id="llm-Sv5bOsCH1gsNNvd9-118" value="&lt;span&gt;…&lt;/span&gt;" style="rounded=0;whiteSpace=wrap;html=1;strokeColor=#D6D6D6;fillColor=#FFFFFF;align=left;spacingLeft=10;" vertex="1" parent="1">
          <mxGeometry x="-570" y="580" width="280" height="30" as="geometry" />
        </mxCell>
        <mxCell id="llm-Sv5bOsCH1gsNNvd9-119" value="&lt;span&gt;…&lt;/span&gt;" style="rounded=0;whiteSpace=wrap;html=1;strokeColor=#D6D6D6;fillColor=#FFFFFF;align=left;spacingLeft=10;" vertex="1" parent="1">
          <mxGeometry x="-570" y="610" width="280" height="30" as="geometry" />
        </mxCell>
        <mxCell id="llm-Sv5bOsCH1gsNNvd9-120" value="&lt;span&gt;…&lt;/span&gt;" style="rounded=0;whiteSpace=wrap;html=1;strokeColor=#D6D6D6;fillColor=#FFFFFF;align=left;spacingLeft=10;" vertex="1" parent="1">
          <mxGeometry x="-570" y="640" width="280" height="30" as="geometry" />
        </mxCell>
        <mxCell id="llm-Sv5bOsCH1gsNNvd9-121" value="&lt;span&gt;…&lt;/span&gt;" style="rounded=0;whiteSpace=wrap;html=1;strokeColor=#D6D6D6;fillColor=#FFFFFF;align=left;spacingLeft=10;" vertex="1" parent="1">
          <mxGeometry x="-570" y="670" width="280" height="30" as="geometry" />
        </mxCell>
        <mxCell id="llm-Sv5bOsCH1gsNNvd9-122" value="&lt;span&gt;…&lt;/span&gt;" style="rounded=0;whiteSpace=wrap;html=1;strokeColor=#D6D6D6;fillColor=#FFFFFF;align=left;spacingLeft=10;" vertex="1" parent="1">
          <mxGeometry x="-570" y="700" width="280" height="30" as="geometry" />
        </mxCell>
        <mxCell id="llm-Sv5bOsCH1gsNNvd9-123" value="&lt;span&gt;…&lt;/span&gt;" style="rounded=0;whiteSpace=wrap;html=1;strokeColor=#D6D6D6;fillColor=#FBE1C0;align=left;spacingLeft=10;" vertex="1" parent="1">
          <mxGeometry x="-570" y="730" width="280" height="30" as="geometry" />
        </mxCell>
        <mxCell id="llm-Sv5bOsCH1gsNNvd9-124" value="&lt;span&gt;…&lt;/span&gt;" style="rounded=0;whiteSpace=wrap;html=1;strokeColor=#D6D6D6;fillColor=#FFFFFF;align=left;spacingLeft=10;" vertex="1" parent="1">
          <mxGeometry x="-570" y="760" width="280" height="30" as="geometry" />
        </mxCell>
        <mxCell id="llm-Sv5bOsCH1gsNNvd9-125" value="&lt;span&gt;…&lt;/span&gt;" style="rounded=0;whiteSpace=wrap;html=1;strokeColor=#D6D6D6;fillColor=#FFFFFF;align=left;spacingLeft=10;" vertex="1" parent="1">
          <mxGeometry x="-570" y="790" width="280" height="30" as="geometry" />
        </mxCell>
        <mxCell id="llm-Sv5bOsCH1gsNNvd9-126" value="&lt;span&gt;…&lt;/span&gt;" style="rounded=0;whiteSpace=wrap;html=1;strokeColor=#D6D6D6;fillColor=#FFFFFF;align=left;spacingLeft=10;" vertex="1" parent="1">
          <mxGeometry x="-570" y="820" width="280" height="30" as="geometry" />
        </mxCell>
        <mxCell id="llm-Sv5bOsCH1gsNNvd9-127" value="&lt;span&gt;…&lt;/span&gt;" style="rounded=0;whiteSpace=wrap;html=1;strokeColor=#D6D6D6;fillColor=#FFFFFF;align=left;spacingLeft=10;" vertex="1" parent="1">
          <mxGeometry x="-570" y="850" width="280" height="30" as="geometry" />
        </mxCell>
        <mxCell id="llm-Sv5bOsCH1gsNNvd9-128" value="&lt;span style=&quot;white-space: nowrap&quot;&gt;…&lt;/span&gt;" style="rounded=0;whiteSpace=wrap;html=1;strokeColor=#D6D6D6;fillColor=#FFFFFF;align=left;spacingLeft=10;" vertex="1" parent="1">
          <mxGeometry x="-570" y="880" width="280" height="30" as="geometry" />
        </mxCell>
        <mxCell id="llm-Sv5bOsCH1gsNNvd9-129" value="1" style="rounded=0;whiteSpace=wrap;html=1;strokeColor=#D6D6D6;fillColor=#FBE1C0;align=right;spacingLeft=10;spacingRight=8;" vertex="1" parent="1">
          <mxGeometry x="-610" y="310" width="40" height="30" as="geometry" />
        </mxCell>
        <mxCell id="llm-Sv5bOsCH1gsNNvd9-130" value="1.1" style="rounded=0;whiteSpace=wrap;html=1;strokeColor=#D6D6D6;fillColor=#FFFFFF;align=right;spacingLeft=10;spacingRight=8;" vertex="1" parent="1">
          <mxGeometry x="-610" y="340" width="40" height="30" as="geometry" />
        </mxCell>
        <mxCell id="llm-Sv5bOsCH1gsNNvd9-131" value="1.2" style="rounded=0;whiteSpace=wrap;html=1;strokeColor=#D6D6D6;fillColor=#FFFFFF;align=right;spacingLeft=10;spacingRight=8;" vertex="1" parent="1">
          <mxGeometry x="-610" y="370" width="40" height="30" as="geometry" />
        </mxCell>
        <mxCell id="llm-Sv5bOsCH1gsNNvd9-132" value="1.4" style="rounded=0;whiteSpace=wrap;html=1;strokeColor=#D6D6D6;fillColor=#FFFFFF;align=right;spacingLeft=10;spacingRight=8;" vertex="1" parent="1">
          <mxGeometry x="-610" y="430" width="40" height="30" as="geometry" />
        </mxCell>
        <mxCell id="llm-Sv5bOsCH1gsNNvd9-133" value="1.6" style="rounded=0;whiteSpace=wrap;html=1;strokeColor=#D6D6D6;fillColor=#FFFFFF;align=right;spacingLeft=10;spacingRight=8;" vertex="1" parent="1">
          <mxGeometry x="-610" y="490" width="40" height="30" as="geometry" />
        </mxCell>
        <mxCell id="llm-Sv5bOsCH1gsNNvd9-134" value="2" style="rounded=0;whiteSpace=wrap;html=1;strokeColor=#D6D6D6;fillColor=#FBE1C0;align=right;spacingLeft=10;spacingRight=8;" vertex="1" parent="1">
          <mxGeometry x="-610" y="520" width="40" height="30" as="geometry" />
        </mxCell>
        <mxCell id="llm-Sv5bOsCH1gsNNvd9-135" value="2.1" style="rounded=0;whiteSpace=wrap;html=1;strokeColor=#D6D6D6;fillColor=#FFFFFF;align=right;spacingLeft=10;spacingRight=8;" vertex="1" parent="1">
          <mxGeometry x="-610" y="550" width="40" height="30" as="geometry" />
        </mxCell>
        <mxCell id="llm-Sv5bOsCH1gsNNvd9-136" value="2.2" style="rounded=0;whiteSpace=wrap;html=1;strokeColor=#D6D6D6;fillColor=#FFFFFF;align=right;spacingLeft=10;spacingRight=8;" vertex="1" parent="1">
          <mxGeometry x="-610" y="580" width="40" height="30" as="geometry" />
        </mxCell>
        <mxCell id="llm-Sv5bOsCH1gsNNvd9-137" value="2.3" style="rounded=0;whiteSpace=wrap;html=1;strokeColor=#D6D6D6;fillColor=#FFFFFF;align=right;spacingLeft=10;spacingRight=8;" vertex="1" parent="1">
          <mxGeometry x="-610" y="610" width="40" height="30" as="geometry" />
        </mxCell>
        <mxCell id="llm-Sv5bOsCH1gsNNvd9-138" value="2.4" style="rounded=0;whiteSpace=wrap;html=1;strokeColor=#D6D6D6;fillColor=#FFFFFF;align=right;spacingLeft=10;spacingRight=8;" vertex="1" parent="1">
          <mxGeometry x="-610" y="640" width="40" height="30" as="geometry" />
        </mxCell>
        <mxCell id="llm-Sv5bOsCH1gsNNvd9-139" value="2.5" style="rounded=0;whiteSpace=wrap;html=1;strokeColor=#D6D6D6;fillColor=#FFFFFF;align=right;spacingLeft=10;spacingRight=8;" vertex="1" parent="1">
          <mxGeometry x="-610" y="670" width="40" height="30" as="geometry" />
        </mxCell>
        <mxCell id="llm-Sv5bOsCH1gsNNvd9-140" value="2.6" style="rounded=0;whiteSpace=wrap;html=1;strokeColor=#D6D6D6;fillColor=#FFFFFF;align=right;spacingLeft=10;spacingRight=8;" vertex="1" parent="1">
          <mxGeometry x="-610" y="700" width="40" height="30" as="geometry" />
        </mxCell>
        <mxCell id="llm-Sv5bOsCH1gsNNvd9-141" value="3" style="rounded=0;whiteSpace=wrap;html=1;strokeColor=#D6D6D6;fillColor=#FBE1C0;align=right;spacingLeft=10;spacingRight=8;" vertex="1" parent="1">
          <mxGeometry x="-610" y="730" width="40" height="30" as="geometry" />
        </mxCell>
        <mxCell id="llm-Sv5bOsCH1gsNNvd9-142" value="3.1" style="rounded=0;whiteSpace=wrap;html=1;strokeColor=#D6D6D6;fillColor=#FFFFFF;align=right;spacingLeft=10;spacingRight=8;" vertex="1" parent="1">
          <mxGeometry x="-610" y="760" width="40" height="30" as="geometry" />
        </mxCell>
        <mxCell id="llm-Sv5bOsCH1gsNNvd9-143" value="3.2" style="rounded=0;whiteSpace=wrap;html=1;strokeColor=#D6D6D6;fillColor=#FFFFFF;align=right;spacingLeft=10;spacingRight=8;" vertex="1" parent="1">
          <mxGeometry x="-610" y="790" width="40" height="30" as="geometry" />
        </mxCell>
        <mxCell id="llm-Sv5bOsCH1gsNNvd9-144" value="3.3" style="rounded=0;whiteSpace=wrap;html=1;strokeColor=#D6D6D6;fillColor=#FFFFFF;align=right;spacingLeft=10;spacingRight=8;" vertex="1" parent="1">
          <mxGeometry x="-610" y="820" width="40" height="30" as="geometry" />
        </mxCell>
        <mxCell id="llm-Sv5bOsCH1gsNNvd9-145" value="3.4" style="rounded=0;whiteSpace=wrap;html=1;strokeColor=#D6D6D6;fillColor=#FFFFFF;align=right;spacingLeft=10;spacingRight=8;" vertex="1" parent="1">
          <mxGeometry x="-610" y="850" width="40" height="30" as="geometry" />
        </mxCell>
        <mxCell id="llm-Sv5bOsCH1gsNNvd9-146" value="3.5" style="rounded=0;whiteSpace=wrap;html=1;strokeColor=#D6D6D6;fillColor=#FFFFFF;align=right;spacingLeft=10;spacingRight=8;" vertex="1" parent="1">
          <mxGeometry x="-610" y="880" width="40" height="30" as="geometry" />
        </mxCell>
        <mxCell id="llm-Sv5bOsCH1gsNNvd9-147" value="XY days" style="rounded=0;whiteSpace=wrap;html=1;strokeColor=#D6D6D6;fillColor=#f7c382;align=left;spacingLeft=10;spacingRight=8;" vertex="1" parent="1">
          <mxGeometry x="-290" y="280" width="80" height="30" as="geometry" />
        </mxCell>
        <mxCell id="llm-Sv5bOsCH1gsNNvd9-148" value="30 days" style="rounded=0;whiteSpace=wrap;html=1;strokeColor=#D6D6D6;fillColor=#FBE1C0;align=left;spacingLeft=10;spacingRight=8;" vertex="1" parent="1">
          <mxGeometry x="-290" y="310" width="80" height="30" as="geometry" />
        </mxCell>
        <mxCell id="llm-Sv5bOsCH1gsNNvd9-149" value="XY days" style="rounded=0;whiteSpace=wrap;html=1;strokeColor=#D6D6D6;fillColor=#FFFFFF;align=left;spacingLeft=10;spacingRight=8;" vertex="1" parent="1">
          <mxGeometry x="-290" y="340" width="80" height="30" as="geometry" />
        </mxCell>
        <mxCell id="llm-Sv5bOsCH1gsNNvd9-150" value="mm-dd-yy" style="rounded=0;whiteSpace=wrap;html=1;strokeColor=#D6D6D6;fillColor=#f7c382;align=left;spacingLeft=10;spacingRight=8;" vertex="1" parent="1">
          <mxGeometry x="-210" y="280" width="80" height="30" as="geometry" />
        </mxCell>
        <mxCell id="llm-Sv5bOsCH1gsNNvd9-151" value="06-05-21" style="rounded=0;whiteSpace=wrap;html=1;strokeColor=#D6D6D6;fillColor=#FBE1C0;align=left;spacingLeft=10;spacingRight=8;" vertex="1" parent="1">
          <mxGeometry x="-210" y="310" width="80" height="30" as="geometry" />
        </mxCell>
        <mxCell id="llm-Sv5bOsCH1gsNNvd9-152" value="mm-dd-yy" style="rounded=0;whiteSpace=wrap;html=1;strokeColor=#D6D6D6;fillColor=#FFFFFF;align=left;spacingLeft=10;spacingRight=8;" vertex="1" parent="1">
          <mxGeometry x="-210" y="340" width="80" height="30" as="geometry" />
        </mxCell>
        <mxCell id="llm-Sv5bOsCH1gsNNvd9-153" value="mm-dd-yy" style="rounded=0;whiteSpace=wrap;html=1;strokeColor=#D6D6D6;fillColor=#f7c382;align=left;spacingLeft=10;spacingRight=8;" vertex="1" parent="1">
          <mxGeometry x="-130" y="280" width="80" height="30" as="geometry" />
        </mxCell>
        <mxCell id="llm-Sv5bOsCH1gsNNvd9-154" value="07-20-21" style="rounded=0;whiteSpace=wrap;html=1;strokeColor=#D6D6D6;fillColor=#FBE1C0;align=left;spacingLeft=10;spacingRight=8;" vertex="1" parent="1">
          <mxGeometry x="-130" y="310" width="80" height="30" as="geometry" />
        </mxCell>
        <mxCell id="llm-Sv5bOsCH1gsNNvd9-155" value="mm-dd-yy" style="rounded=0;whiteSpace=wrap;html=1;strokeColor=#D6D6D6;fillColor=#FFFFFF;align=left;spacingLeft=10;spacingRight=8;" vertex="1" parent="1">
          <mxGeometry x="-130" y="340" width="80" height="30" as="geometry" />
        </mxCell>
        <mxCell id="llm-Sv5bOsCH1gsNNvd9-156" value="&lt;span&gt;…&lt;/span&gt;" style="rounded=0;whiteSpace=wrap;html=1;strokeColor=#D6D6D6;fillColor=#FFFFFF;align=left;spacingLeft=10;" vertex="1" parent="1">
          <mxGeometry x="-570" y="370" width="280" height="30" as="geometry" />
        </mxCell>
        <mxCell id="llm-Sv5bOsCH1gsNNvd9-157" value="1.3" style="rounded=0;whiteSpace=wrap;html=1;strokeColor=#D6D6D6;fillColor=#FFFFFF;align=right;spacingLeft=10;spacingRight=8;" vertex="1" parent="1">
          <mxGeometry x="-610" y="400" width="40" height="30" as="geometry" />
        </mxCell>
        <mxCell id="llm-Sv5bOsCH1gsNNvd9-158" value="&lt;span&gt;…&lt;/span&gt;" style="rounded=0;whiteSpace=wrap;html=1;strokeColor=#D6D6D6;fillColor=#FFFFFF;align=left;spacingLeft=10;" vertex="1" parent="1">
          <mxGeometry x="-570" y="430" width="280" height="30" as="geometry" />
        </mxCell>
        <mxCell id="llm-Sv5bOsCH1gsNNvd9-159" value="1.5" style="rounded=0;whiteSpace=wrap;html=1;strokeColor=#D6D6D6;fillColor=#FFFFFF;align=right;spacingLeft=10;spacingRight=8;" vertex="1" parent="1">
          <mxGeometry x="-610" y="460" width="40" height="30" as="geometry" />
        </mxCell>
        <mxCell id="llm-Sv5bOsCH1gsNNvd9-160" value="#" style="rounded=0;whiteSpace=wrap;html=1;strokeColor=none;fillColor=#D6D6D6;align=center;" vertex="1" parent="1">
          <mxGeometry x="-610" y="240" width="40" height="40" as="geometry" />
        </mxCell>
        <mxCell id="llm-Sv5bOsCH1gsNNvd9-161" value="函数式Op体系重构项目" style="rounded=0;whiteSpace=wrap;html=1;strokeColor=none;fillColor=#D6D6D6;align=center;" vertex="1" parent="1">
          <mxGeometry x="-570" y="240" width="280" height="40" as="geometry" />
        </mxCell>
        <mxCell id="llm-Sv5bOsCH1gsNNvd9-162" value="Duration" style="rounded=0;whiteSpace=wrap;html=1;strokeColor=none;fillColor=#D6D6D6;align=center;" vertex="1" parent="1">
          <mxGeometry x="-290" y="240" width="80" height="40" as="geometry" />
        </mxCell>
        <mxCell id="llm-Sv5bOsCH1gsNNvd9-163" value="Start" style="rounded=0;whiteSpace=wrap;html=1;strokeColor=none;fillColor=#D6D6D6;align=center;" vertex="1" parent="1">
          <mxGeometry x="-210" y="240" width="80" height="40" as="geometry" />
        </mxCell>
        <mxCell id="llm-Sv5bOsCH1gsNNvd9-164" value="ETA" style="rounded=0;whiteSpace=wrap;html=1;strokeColor=none;fillColor=#D6D6D6;align=center;" vertex="1" parent="1">
          <mxGeometry x="-130" y="240" width="80" height="40" as="geometry" />
        </mxCell>
        <mxCell id="llm-Sv5bOsCH1gsNNvd9-165" value="mm-dd-yy" style="rounded=0;whiteSpace=wrap;html=1;strokeColor=#D6D6D6;fillColor=#FFFFFF;align=left;spacingLeft=10;spacingRight=8;" vertex="1" parent="1">
          <mxGeometry x="-210" y="370" width="80" height="30" as="geometry" />
        </mxCell>
        <mxCell id="llm-Sv5bOsCH1gsNNvd9-166" value="mm-dd-yy" style="rounded=0;whiteSpace=wrap;html=1;strokeColor=#D6D6D6;fillColor=#FFFFFF;align=left;spacingLeft=10;spacingRight=8;" vertex="1" parent="1">
          <mxGeometry x="-130" y="370" width="80" height="30" as="geometry" />
        </mxCell>
        <mxCell id="llm-Sv5bOsCH1gsNNvd9-167" value="XY days" style="rounded=0;whiteSpace=wrap;html=1;strokeColor=#D6D6D6;fillColor=#FFFFFF;align=left;spacingLeft=10;spacingRight=8;" vertex="1" parent="1">
          <mxGeometry x="-290" y="370" width="80" height="30" as="geometry" />
        </mxCell>
        <mxCell id="llm-Sv5bOsCH1gsNNvd9-168" value="mm-dd-yy" style="rounded=0;whiteSpace=wrap;html=1;strokeColor=#D6D6D6;fillColor=#FFFFFF;align=left;spacingLeft=10;spacingRight=8;" vertex="1" parent="1">
          <mxGeometry x="-210" y="400" width="80" height="30" as="geometry" />
        </mxCell>
        <mxCell id="llm-Sv5bOsCH1gsNNvd9-169" value="mm-dd-yy" style="rounded=0;whiteSpace=wrap;html=1;strokeColor=#D6D6D6;fillColor=#FFFFFF;align=left;spacingLeft=10;spacingRight=8;" vertex="1" parent="1">
          <mxGeometry x="-130" y="400" width="80" height="30" as="geometry" />
        </mxCell>
        <mxCell id="llm-Sv5bOsCH1gsNNvd9-170" value="XY days" style="rounded=0;whiteSpace=wrap;html=1;strokeColor=#D6D6D6;fillColor=#FFFFFF;align=left;spacingLeft=10;spacingRight=8;" vertex="1" parent="1">
          <mxGeometry x="-290" y="400" width="80" height="30" as="geometry" />
        </mxCell>
        <mxCell id="llm-Sv5bOsCH1gsNNvd9-171" value="XY days" style="rounded=0;whiteSpace=wrap;html=1;strokeColor=#D6D6D6;fillColor=#FFFFFF;align=left;spacingLeft=10;spacingRight=8;" vertex="1" parent="1">
          <mxGeometry x="-290" y="430" width="80" height="30" as="geometry" />
        </mxCell>
        <mxCell id="llm-Sv5bOsCH1gsNNvd9-172" value="mm-dd-yy" style="rounded=0;whiteSpace=wrap;html=1;strokeColor=#D6D6D6;fillColor=#FFFFFF;align=left;spacingLeft=10;spacingRight=8;" vertex="1" parent="1">
          <mxGeometry x="-210" y="430" width="80" height="30" as="geometry" />
        </mxCell>
        <mxCell id="llm-Sv5bOsCH1gsNNvd9-173" value="mm-dd-yy" style="rounded=0;whiteSpace=wrap;html=1;strokeColor=#D6D6D6;fillColor=#FFFFFF;align=left;spacingLeft=10;spacingRight=8;" vertex="1" parent="1">
          <mxGeometry x="-210" y="460" width="80" height="30" as="geometry" />
        </mxCell>
        <mxCell id="llm-Sv5bOsCH1gsNNvd9-174" value="XY days" style="rounded=0;whiteSpace=wrap;html=1;strokeColor=#D6D6D6;fillColor=#FFFFFF;align=left;spacingLeft=10;spacingRight=8;" vertex="1" parent="1">
          <mxGeometry x="-290" y="460" width="80" height="30" as="geometry" />
        </mxCell>
        <mxCell id="llm-Sv5bOsCH1gsNNvd9-175" value="mm-dd-yy" style="rounded=0;whiteSpace=wrap;html=1;strokeColor=#D6D6D6;fillColor=#FFFFFF;align=left;spacingLeft=10;spacingRight=8;" vertex="1" parent="1">
          <mxGeometry x="-210" y="490" width="80" height="30" as="geometry" />
        </mxCell>
        <mxCell id="llm-Sv5bOsCH1gsNNvd9-176" value="XY days" style="rounded=0;whiteSpace=wrap;html=1;strokeColor=#D6D6D6;fillColor=#FFFFFF;align=left;spacingLeft=10;spacingRight=8;" vertex="1" parent="1">
          <mxGeometry x="-290" y="490" width="80" height="30" as="geometry" />
        </mxCell>
        <mxCell id="llm-Sv5bOsCH1gsNNvd9-177" value="mm-dd-yy" style="rounded=0;whiteSpace=wrap;html=1;strokeColor=#D6D6D6;fillColor=#FFFFFF;align=left;spacingLeft=10;spacingRight=8;" vertex="1" parent="1">
          <mxGeometry x="-130" y="430" width="80" height="30" as="geometry" />
        </mxCell>
        <mxCell id="llm-Sv5bOsCH1gsNNvd9-178" value="mm-dd-yy" style="rounded=0;whiteSpace=wrap;html=1;strokeColor=#D6D6D6;fillColor=#FFFFFF;align=left;spacingLeft=10;spacingRight=8;" vertex="1" parent="1">
          <mxGeometry x="-130" y="460" width="80" height="30" as="geometry" />
        </mxCell>
        <mxCell id="llm-Sv5bOsCH1gsNNvd9-179" value="mm-dd-yy" style="rounded=0;whiteSpace=wrap;html=1;strokeColor=#D6D6D6;fillColor=#FFFFFF;align=left;spacingLeft=10;spacingRight=8;" vertex="1" parent="1">
          <mxGeometry x="-130" y="490" width="80" height="30" as="geometry" />
        </mxCell>
        <mxCell id="llm-Sv5bOsCH1gsNNvd9-180" value="XY days" style="rounded=0;whiteSpace=wrap;html=1;strokeColor=#D6D6D6;fillColor=#FFFFFF;align=left;spacingLeft=10;spacingRight=8;" vertex="1" parent="1">
          <mxGeometry x="-290" y="550" width="80" height="30" as="geometry" />
        </mxCell>
        <mxCell id="llm-Sv5bOsCH1gsNNvd9-181" value="mm-dd-yy" style="rounded=0;whiteSpace=wrap;html=1;strokeColor=#D6D6D6;fillColor=#FFFFFF;align=left;spacingLeft=10;spacingRight=8;" vertex="1" parent="1">
          <mxGeometry x="-210" y="550" width="80" height="30" as="geometry" />
        </mxCell>
        <mxCell id="llm-Sv5bOsCH1gsNNvd9-182" value="mm-dd-yy" style="rounded=0;whiteSpace=wrap;html=1;strokeColor=#D6D6D6;fillColor=#FFFFFF;align=left;spacingLeft=10;spacingRight=8;" vertex="1" parent="1">
          <mxGeometry x="-210" y="580" width="80" height="30" as="geometry" />
        </mxCell>
        <mxCell id="llm-Sv5bOsCH1gsNNvd9-183" value="XY days" style="rounded=0;whiteSpace=wrap;html=1;strokeColor=#D6D6D6;fillColor=#FFFFFF;align=left;spacingLeft=10;spacingRight=8;" vertex="1" parent="1">
          <mxGeometry x="-290" y="580" width="80" height="30" as="geometry" />
        </mxCell>
        <mxCell id="llm-Sv5bOsCH1gsNNvd9-184" value="mm-dd-yy" style="rounded=0;whiteSpace=wrap;html=1;strokeColor=#D6D6D6;fillColor=#FFFFFF;align=left;spacingLeft=10;spacingRight=8;" vertex="1" parent="1">
          <mxGeometry x="-210" y="610" width="80" height="30" as="geometry" />
        </mxCell>
        <mxCell id="llm-Sv5bOsCH1gsNNvd9-185" value="XY days" style="rounded=0;whiteSpace=wrap;html=1;strokeColor=#D6D6D6;fillColor=#FFFFFF;align=left;spacingLeft=10;spacingRight=8;" vertex="1" parent="1">
          <mxGeometry x="-290" y="610" width="80" height="30" as="geometry" />
        </mxCell>
        <mxCell id="llm-Sv5bOsCH1gsNNvd9-186" value="mm-dd-yy" style="rounded=0;whiteSpace=wrap;html=1;strokeColor=#D6D6D6;fillColor=#FFFFFF;align=left;spacingLeft=10;spacingRight=8;" vertex="1" parent="1">
          <mxGeometry x="-130" y="550" width="80" height="30" as="geometry" />
        </mxCell>
        <mxCell id="llm-Sv5bOsCH1gsNNvd9-187" value="mm-dd-yy" style="rounded=0;whiteSpace=wrap;html=1;strokeColor=#D6D6D6;fillColor=#FFFFFF;align=left;spacingLeft=10;spacingRight=8;" vertex="1" parent="1">
          <mxGeometry x="-130" y="580" width="80" height="30" as="geometry" />
        </mxCell>
        <mxCell id="llm-Sv5bOsCH1gsNNvd9-188" value="mm-dd-yy" style="rounded=0;whiteSpace=wrap;html=1;strokeColor=#D6D6D6;fillColor=#FFFFFF;align=left;spacingLeft=10;spacingRight=8;" vertex="1" parent="1">
          <mxGeometry x="-130" y="610" width="80" height="30" as="geometry" />
        </mxCell>
        <mxCell id="llm-Sv5bOsCH1gsNNvd9-189" value="XY days" style="rounded=0;whiteSpace=wrap;html=1;strokeColor=#D6D6D6;fillColor=#FFFFFF;align=left;spacingLeft=10;spacingRight=8;" vertex="1" parent="1">
          <mxGeometry x="-290" y="640" width="80" height="30" as="geometry" />
        </mxCell>
        <mxCell id="llm-Sv5bOsCH1gsNNvd9-190" value="mm-dd-yy" style="rounded=0;whiteSpace=wrap;html=1;strokeColor=#D6D6D6;fillColor=#FFFFFF;align=left;spacingLeft=10;spacingRight=8;" vertex="1" parent="1">
          <mxGeometry x="-210" y="640" width="80" height="30" as="geometry" />
        </mxCell>
        <mxCell id="llm-Sv5bOsCH1gsNNvd9-191" value="mm-dd-yy" style="rounded=0;whiteSpace=wrap;html=1;strokeColor=#D6D6D6;fillColor=#FFFFFF;align=left;spacingLeft=10;spacingRight=8;" vertex="1" parent="1">
          <mxGeometry x="-210" y="670" width="80" height="30" as="geometry" />
        </mxCell>
        <mxCell id="llm-Sv5bOsCH1gsNNvd9-192" value="XY days" style="rounded=0;whiteSpace=wrap;html=1;strokeColor=#D6D6D6;fillColor=#FFFFFF;align=left;spacingLeft=10;spacingRight=8;" vertex="1" parent="1">
          <mxGeometry x="-290" y="670" width="80" height="30" as="geometry" />
        </mxCell>
        <mxCell id="llm-Sv5bOsCH1gsNNvd9-193" value="mm-dd-yy" style="rounded=0;whiteSpace=wrap;html=1;strokeColor=#D6D6D6;fillColor=#FFFFFF;align=left;spacingLeft=10;spacingRight=8;" vertex="1" parent="1">
          <mxGeometry x="-210" y="700" width="80" height="30" as="geometry" />
        </mxCell>
        <mxCell id="llm-Sv5bOsCH1gsNNvd9-194" value="XY days" style="rounded=0;whiteSpace=wrap;html=1;strokeColor=#D6D6D6;fillColor=#FFFFFF;align=left;spacingLeft=10;spacingRight=8;" vertex="1" parent="1">
          <mxGeometry x="-290" y="700" width="80" height="30" as="geometry" />
        </mxCell>
        <mxCell id="llm-Sv5bOsCH1gsNNvd9-195" value="mm-dd-yy" style="rounded=0;whiteSpace=wrap;html=1;strokeColor=#D6D6D6;fillColor=#FFFFFF;align=left;spacingLeft=10;spacingRight=8;" vertex="1" parent="1">
          <mxGeometry x="-130" y="640" width="80" height="30" as="geometry" />
        </mxCell>
        <mxCell id="llm-Sv5bOsCH1gsNNvd9-196" value="mm-dd-yy" style="rounded=0;whiteSpace=wrap;html=1;strokeColor=#D6D6D6;fillColor=#FFFFFF;align=left;spacingLeft=10;spacingRight=8;" vertex="1" parent="1">
          <mxGeometry x="-130" y="670" width="80" height="30" as="geometry" />
        </mxCell>
        <mxCell id="llm-Sv5bOsCH1gsNNvd9-197" value="mm-dd-yy" style="rounded=0;whiteSpace=wrap;html=1;strokeColor=#D6D6D6;fillColor=#FFFFFF;align=left;spacingLeft=10;spacingRight=8;" vertex="1" parent="1">
          <mxGeometry x="-130" y="700" width="80" height="30" as="geometry" />
        </mxCell>
        <mxCell id="llm-Sv5bOsCH1gsNNvd9-198" value="XY days" style="rounded=0;whiteSpace=wrap;html=1;strokeColor=#D6D6D6;fillColor=#FFFFFF;align=left;spacingLeft=10;spacingRight=8;" vertex="1" parent="1">
          <mxGeometry x="-290" y="760" width="80" height="30" as="geometry" />
        </mxCell>
        <mxCell id="llm-Sv5bOsCH1gsNNvd9-199" value="mm-dd-yy" style="rounded=0;whiteSpace=wrap;html=1;strokeColor=#D6D6D6;fillColor=#FFFFFF;align=left;spacingLeft=10;spacingRight=8;" vertex="1" parent="1">
          <mxGeometry x="-210" y="760" width="80" height="30" as="geometry" />
        </mxCell>
        <mxCell id="llm-Sv5bOsCH1gsNNvd9-200" value="mm-dd-yy" style="rounded=0;whiteSpace=wrap;html=1;strokeColor=#D6D6D6;fillColor=#FFFFFF;align=left;spacingLeft=10;spacingRight=8;" vertex="1" parent="1">
          <mxGeometry x="-210" y="790" width="80" height="30" as="geometry" />
        </mxCell>
        <mxCell id="llm-Sv5bOsCH1gsNNvd9-201" value="XY days" style="rounded=0;whiteSpace=wrap;html=1;strokeColor=#D6D6D6;fillColor=#FFFFFF;align=left;spacingLeft=10;spacingRight=8;" vertex="1" parent="1">
          <mxGeometry x="-290" y="790" width="80" height="30" as="geometry" />
        </mxCell>
        <mxCell id="llm-Sv5bOsCH1gsNNvd9-202" value="mm-dd-yy" style="rounded=0;whiteSpace=wrap;html=1;strokeColor=#D6D6D6;fillColor=#FFFFFF;align=left;spacingLeft=10;spacingRight=8;" vertex="1" parent="1">
          <mxGeometry x="-210" y="820" width="80" height="30" as="geometry" />
        </mxCell>
        <mxCell id="llm-Sv5bOsCH1gsNNvd9-203" value="XY days" style="rounded=0;whiteSpace=wrap;html=1;strokeColor=#D6D6D6;fillColor=#FFFFFF;align=left;spacingLeft=10;spacingRight=8;" vertex="1" parent="1">
          <mxGeometry x="-290" y="820" width="80" height="30" as="geometry" />
        </mxCell>
        <mxCell id="llm-Sv5bOsCH1gsNNvd9-204" value="mm-dd-yy" style="rounded=0;whiteSpace=wrap;html=1;strokeColor=#D6D6D6;fillColor=#FFFFFF;align=left;spacingLeft=10;spacingRight=8;" vertex="1" parent="1">
          <mxGeometry x="-130" y="760" width="80" height="30" as="geometry" />
        </mxCell>
        <mxCell id="llm-Sv5bOsCH1gsNNvd9-205" value="mm-dd-yy" style="rounded=0;whiteSpace=wrap;html=1;strokeColor=#D6D6D6;fillColor=#FFFFFF;align=left;spacingLeft=10;spacingRight=8;" vertex="1" parent="1">
          <mxGeometry x="-130" y="790" width="80" height="30" as="geometry" />
        </mxCell>
        <mxCell id="llm-Sv5bOsCH1gsNNvd9-206" value="mm-dd-yy" style="rounded=0;whiteSpace=wrap;html=1;strokeColor=#D6D6D6;fillColor=#FFFFFF;align=left;spacingLeft=10;spacingRight=8;" vertex="1" parent="1">
          <mxGeometry x="-130" y="820" width="80" height="30" as="geometry" />
        </mxCell>
        <mxCell id="llm-Sv5bOsCH1gsNNvd9-207" value="XY days" style="rounded=0;whiteSpace=wrap;html=1;strokeColor=#D6D6D6;fillColor=#FFFFFF;align=left;spacingLeft=10;spacingRight=8;" vertex="1" parent="1">
          <mxGeometry x="-290" y="850" width="80" height="30" as="geometry" />
        </mxCell>
        <mxCell id="llm-Sv5bOsCH1gsNNvd9-208" value="mm-dd-yy" style="rounded=0;whiteSpace=wrap;html=1;strokeColor=#D6D6D6;fillColor=#FFFFFF;align=left;spacingLeft=10;spacingRight=8;" vertex="1" parent="1">
          <mxGeometry x="-210" y="850" width="80" height="30" as="geometry" />
        </mxCell>
        <mxCell id="llm-Sv5bOsCH1gsNNvd9-209" value="mm-dd-yy" style="rounded=0;whiteSpace=wrap;html=1;strokeColor=#D6D6D6;fillColor=#FFFFFF;align=left;spacingLeft=10;spacingRight=8;" vertex="1" parent="1">
          <mxGeometry x="-210" y="880" width="80" height="30" as="geometry" />
        </mxCell>
        <mxCell id="llm-Sv5bOsCH1gsNNvd9-210" value="XY days" style="rounded=0;whiteSpace=wrap;html=1;strokeColor=#D6D6D6;fillColor=#FFFFFF;align=left;spacingLeft=10;spacingRight=8;" vertex="1" parent="1">
          <mxGeometry x="-290" y="880" width="80" height="30" as="geometry" />
        </mxCell>
        <mxCell id="llm-Sv5bOsCH1gsNNvd9-211" value="mm-dd-yy" style="rounded=0;whiteSpace=wrap;html=1;strokeColor=#D6D6D6;fillColor=#FFFFFF;align=left;spacingLeft=10;spacingRight=8;" vertex="1" parent="1">
          <mxGeometry x="-130" y="850" width="80" height="30" as="geometry" />
        </mxCell>
        <mxCell id="llm-Sv5bOsCH1gsNNvd9-212" value="mm-dd-yy" style="rounded=0;whiteSpace=wrap;html=1;strokeColor=#D6D6D6;fillColor=#FFFFFF;align=left;spacingLeft=10;spacingRight=8;" vertex="1" parent="1">
          <mxGeometry x="-130" y="880" width="80" height="30" as="geometry" />
        </mxCell>
        <mxCell id="llm-Sv5bOsCH1gsNNvd9-213" value="XY days" style="rounded=0;whiteSpace=wrap;html=1;strokeColor=#D6D6D6;fillColor=#FBE1C0;align=left;spacingLeft=10;spacingRight=8;" vertex="1" parent="1">
          <mxGeometry x="-290" y="520" width="80" height="30" as="geometry" />
        </mxCell>
        <mxCell id="llm-Sv5bOsCH1gsNNvd9-214" value="mm-dd-yy" style="rounded=0;whiteSpace=wrap;html=1;strokeColor=#D6D6D6;fillColor=#FBE1C0;align=left;spacingLeft=10;spacingRight=8;" vertex="1" parent="1">
          <mxGeometry x="-210" y="520" width="80" height="30" as="geometry" />
        </mxCell>
        <mxCell id="llm-Sv5bOsCH1gsNNvd9-215" value="mm-dd-yy" style="rounded=0;whiteSpace=wrap;html=1;strokeColor=#D6D6D6;fillColor=#FBE1C0;align=left;spacingLeft=10;spacingRight=8;" vertex="1" parent="1">
          <mxGeometry x="-130" y="520" width="80" height="30" as="geometry" />
        </mxCell>
        <mxCell id="llm-Sv5bOsCH1gsNNvd9-216" value="XY days" style="rounded=0;whiteSpace=wrap;html=1;strokeColor=#D6D6D6;fillColor=#FBE1C0;align=left;spacingLeft=10;spacingRight=8;" vertex="1" parent="1">
          <mxGeometry x="-290" y="730" width="80" height="30" as="geometry" />
        </mxCell>
        <mxCell id="llm-Sv5bOsCH1gsNNvd9-217" value="mm-dd-yy" style="rounded=0;whiteSpace=wrap;html=1;strokeColor=#D6D6D6;fillColor=#FBE1C0;align=left;spacingLeft=10;spacingRight=8;" vertex="1" parent="1">
          <mxGeometry x="-210" y="730" width="80" height="30" as="geometry" />
        </mxCell>
        <mxCell id="llm-Sv5bOsCH1gsNNvd9-218" value="mm-dd-yy" style="rounded=0;whiteSpace=wrap;html=1;strokeColor=#D6D6D6;fillColor=#FBE1C0;align=left;spacingLeft=10;spacingRight=8;" vertex="1" parent="1">
          <mxGeometry x="-130" y="730" width="80" height="30" as="geometry" />
        </mxCell>
        <mxCell id="llm-Sv5bOsCH1gsNNvd9-335" value="Timeline" style="rounded=0;whiteSpace=wrap;html=1;strokeColor=none;fillColor=#D6D6D6;align=left;" vertex="1" parent="1">
          <mxGeometry x="-50" y="200" width="160" height="40" as="geometry" />
        </mxCell>
        <mxCell id="llm-Sv5bOsCH1gsNNvd9-341" value="" style="group" vertex="1" connectable="0" parent="1">
          <mxGeometry x="-50" y="280" width="400" height="630" as="geometry" />
        </mxCell>
        <mxCell id="llm-Sv5bOsCH1gsNNvd9-342" value="" style="rounded=0;whiteSpace=wrap;html=1;strokeColor=#D6D6D6;fillColor=#FFFFFF;" vertex="1" parent="llm-Sv5bOsCH1gsNNvd9-341">
          <mxGeometry x="80" width="40" height="630" as="geometry" />
        </mxCell>
        <mxCell id="llm-Sv5bOsCH1gsNNvd9-343" value="" style="rounded=0;whiteSpace=wrap;html=1;strokeColor=#D6D6D6;fillColor=#FFFFFF;" vertex="1" parent="llm-Sv5bOsCH1gsNNvd9-341">
          <mxGeometry x="120" width="40" height="630" as="geometry" />
        </mxCell>
        <mxCell id="llm-Sv5bOsCH1gsNNvd9-344" value="" style="rounded=0;whiteSpace=wrap;html=1;strokeColor=#D6D6D6;fillColor=#FFFFFF;" vertex="1" parent="llm-Sv5bOsCH1gsNNvd9-341">
          <mxGeometry x="160" width="40" height="630" as="geometry" />
        </mxCell>
        <mxCell id="llm-Sv5bOsCH1gsNNvd9-345" value="" style="rounded=0;whiteSpace=wrap;html=1;strokeColor=#D6D6D6;fillColor=#FFFFFF;" vertex="1" parent="llm-Sv5bOsCH1gsNNvd9-341">
          <mxGeometry width="40" height="630" as="geometry" />
        </mxCell>
        <mxCell id="llm-Sv5bOsCH1gsNNvd9-346" value="" style="rounded=0;whiteSpace=wrap;html=1;strokeColor=#D6D6D6;fillColor=#FFFFFF;" vertex="1" parent="llm-Sv5bOsCH1gsNNvd9-341">
          <mxGeometry x="40" width="40" height="630" as="geometry" />
        </mxCell>
        <mxCell id="llm-Sv5bOsCH1gsNNvd9-409" value="" style="group" vertex="1" connectable="0" parent="llm-Sv5bOsCH1gsNNvd9-341">
          <mxGeometry x="200" width="200" height="630" as="geometry" />
        </mxCell>
        <mxCell id="llm-Sv5bOsCH1gsNNvd9-410" value="" style="rounded=0;whiteSpace=wrap;html=1;strokeColor=#D6D6D6;fillColor=#FFFFFF;" vertex="1" parent="llm-Sv5bOsCH1gsNNvd9-409">
          <mxGeometry x="80" width="40" height="630" as="geometry" />
        </mxCell>
        <mxCell id="llm-Sv5bOsCH1gsNNvd9-411" value="" style="rounded=0;whiteSpace=wrap;html=1;strokeColor=#D6D6D6;fillColor=#FFFFFF;" vertex="1" parent="llm-Sv5bOsCH1gsNNvd9-409">
          <mxGeometry x="120" width="40" height="630" as="geometry" />
        </mxCell>
        <mxCell id="llm-Sv5bOsCH1gsNNvd9-412" value="" style="rounded=0;whiteSpace=wrap;html=1;strokeColor=#D6D6D6;fillColor=#FFFFFF;" vertex="1" parent="llm-Sv5bOsCH1gsNNvd9-409">
          <mxGeometry x="160" width="40" height="630" as="geometry" />
        </mxCell>
        <mxCell id="llm-Sv5bOsCH1gsNNvd9-413" value="" style="rounded=0;whiteSpace=wrap;html=1;strokeColor=#D6D6D6;fillColor=#FFFFFF;" vertex="1" parent="llm-Sv5bOsCH1gsNNvd9-409">
          <mxGeometry width="40" height="630" as="geometry" />
        </mxCell>
        <mxCell id="llm-Sv5bOsCH1gsNNvd9-414" value="" style="rounded=0;whiteSpace=wrap;html=1;strokeColor=#D6D6D6;fillColor=#FFFFFF;" vertex="1" parent="llm-Sv5bOsCH1gsNNvd9-409">
          <mxGeometry x="40" width="40" height="630" as="geometry" />
        </mxCell>
        <mxCell id="llm-Sv5bOsCH1gsNNvd9-415" value="08.16-08.20" style="whiteSpace=wrap;html=1;aspect=fixed;strokeColor=#D6D6D6;strokeWidth=1;fillColor=#FFFFFF;fontColor=#000000;align=center;" vertex="1" parent="llm-Sv5bOsCH1gsNNvd9-341">
          <mxGeometry x="200" y="-40" width="40" height="40" as="geometry" />
        </mxCell>
        <mxCell id="llm-Sv5bOsCH1gsNNvd9-416" value="08.23-08.27" style="whiteSpace=wrap;html=1;aspect=fixed;strokeColor=#D6D6D6;strokeWidth=1;fillColor=#FFFFFF;fontColor=#000000;align=center;" vertex="1" parent="llm-Sv5bOsCH1gsNNvd9-341">
          <mxGeometry x="240" y="-40" width="40" height="40" as="geometry" />
        </mxCell>
        <mxCell id="llm-Sv5bOsCH1gsNNvd9-417" value="08.30-09.03" style="whiteSpace=wrap;html=1;aspect=fixed;strokeColor=#D6D6D6;strokeWidth=1;fillColor=#FFFFFF;fontColor=#000000;align=center;" vertex="1" parent="llm-Sv5bOsCH1gsNNvd9-341">
          <mxGeometry x="280" y="-40" width="40" height="40" as="geometry" />
        </mxCell>
        <mxCell id="llm-Sv5bOsCH1gsNNvd9-418" value="09.06-09.10" style="whiteSpace=wrap;html=1;aspect=fixed;strokeColor=#D6D6D6;strokeWidth=1;fillColor=#FFFFFF;fontColor=#000000;align=center;" vertex="1" parent="llm-Sv5bOsCH1gsNNvd9-341">
          <mxGeometry x="320" y="-40" width="40" height="40" as="geometry" />
        </mxCell>
        <mxCell id="llm-Sv5bOsCH1gsNNvd9-419" value="09.13-09.17" style="whiteSpace=wrap;html=1;aspect=fixed;strokeColor=#D6D6D6;strokeWidth=1;fillColor=#FFFFFF;fontColor=#000000;align=center;" vertex="1" parent="llm-Sv5bOsCH1gsNNvd9-341">
          <mxGeometry x="360" y="-40" width="40" height="40" as="geometry" />
        </mxCell>
        <mxCell id="llm-Sv5bOsCH1gsNNvd9-360" value="07.12-07.16" style="whiteSpace=wrap;html=1;aspect=fixed;strokeColor=#D6D6D6;strokeWidth=1;fillColor=#FFFFFF;fontColor=#000000;align=center;" vertex="1" parent="1">
          <mxGeometry x="-50" y="240" width="40" height="40" as="geometry" />
        </mxCell>
        <mxCell id="llm-Sv5bOsCH1gsNNvd9-394" value="07.19-07.23" style="whiteSpace=wrap;html=1;aspect=fixed;strokeColor=#D6D6D6;strokeWidth=1;fillColor=#FFFFFF;fontColor=#000000;align=center;" vertex="1" parent="1">
          <mxGeometry x="-10" y="240" width="40" height="40" as="geometry" />
        </mxCell>
        <mxCell id="llm-Sv5bOsCH1gsNNvd9-395" value="07.26-07.30" style="whiteSpace=wrap;html=1;aspect=fixed;strokeColor=#D6D6D6;strokeWidth=1;fillColor=#FFFFFF;fontColor=#000000;align=center;" vertex="1" parent="1">
          <mxGeometry x="30" y="240" width="40" height="40" as="geometry" />
        </mxCell>
        <mxCell id="llm-Sv5bOsCH1gsNNvd9-396" value="08.02-08.06" style="whiteSpace=wrap;html=1;aspect=fixed;strokeColor=#D6D6D6;strokeWidth=1;fillColor=#FFFFFF;fontColor=#000000;align=center;" vertex="1" parent="1">
          <mxGeometry x="70" y="240" width="40" height="40" as="geometry" />
        </mxCell>
        <mxCell id="llm-Sv5bOsCH1gsNNvd9-397" value="08.09-08.13" style="whiteSpace=wrap;html=1;aspect=fixed;strokeColor=#D6D6D6;strokeWidth=1;fillColor=#FFFFFF;fontColor=#000000;align=center;" vertex="1" parent="1">
          <mxGeometry x="110" y="240" width="40" height="40" as="geometry" />
        </mxCell>
        <mxCell id="llm-Sv5bOsCH1gsNNvd9-420" value="" style="group" vertex="1" connectable="0" parent="1">
          <mxGeometry x="590" y="290" width="400" height="630" as="geometry" />
        </mxCell>
        <mxCell id="llm-Sv5bOsCH1gsNNvd9-421" value="" style="rounded=0;whiteSpace=wrap;html=1;strokeColor=#D6D6D6;fillColor=#FFFFFF;" vertex="1" parent="llm-Sv5bOsCH1gsNNvd9-420">
          <mxGeometry x="-160" y="-10" width="40" height="630" as="geometry" />
        </mxCell>
        <mxCell id="llm-Sv5bOsCH1gsNNvd9-422" value="" style="rounded=0;whiteSpace=wrap;html=1;strokeColor=#D6D6D6;fillColor=#FFFFFF;" vertex="1" parent="llm-Sv5bOsCH1gsNNvd9-420">
          <mxGeometry x="-120" y="-10" width="40" height="630" as="geometry" />
        </mxCell>
        <mxCell id="llm-Sv5bOsCH1gsNNvd9-423" value="" style="rounded=0;whiteSpace=wrap;html=1;strokeColor=#D6D6D6;fillColor=#FFFFFF;" vertex="1" parent="llm-Sv5bOsCH1gsNNvd9-420">
          <mxGeometry x="-80" y="-10" width="40" height="630" as="geometry" />
        </mxCell>
        <mxCell id="llm-Sv5bOsCH1gsNNvd9-424" value="" style="rounded=0;whiteSpace=wrap;html=1;strokeColor=#D6D6D6;fillColor=#FFFFFF;" vertex="1" parent="llm-Sv5bOsCH1gsNNvd9-420">
          <mxGeometry x="-240" y="-10" width="40" height="630" as="geometry" />
        </mxCell>
        <mxCell id="llm-Sv5bOsCH1gsNNvd9-425" value="" style="rounded=0;whiteSpace=wrap;html=1;strokeColor=#D6D6D6;fillColor=#FFFFFF;" vertex="1" parent="llm-Sv5bOsCH1gsNNvd9-420">
          <mxGeometry x="-200" y="-10" width="40" height="630" as="geometry" />
        </mxCell>
        <mxCell id="llm-Sv5bOsCH1gsNNvd9-426" value="" style="group" vertex="1" connectable="0" parent="llm-Sv5bOsCH1gsNNvd9-420">
          <mxGeometry x="200" width="200" height="630" as="geometry" />
        </mxCell>
        <mxCell id="llm-Sv5bOsCH1gsNNvd9-430" value="" style="rounded=0;whiteSpace=wrap;html=1;strokeColor=#D6D6D6;fillColor=#FFFFFF;" vertex="1" parent="llm-Sv5bOsCH1gsNNvd9-426">
          <mxGeometry x="-240" y="-10" width="40" height="630" as="geometry" />
        </mxCell>
        <mxCell id="llm-Sv5bOsCH1gsNNvd9-432" value="11.01-" style="whiteSpace=wrap;html=1;aspect=fixed;strokeColor=#D6D6D6;strokeWidth=1;fillColor=#FFFFFF;fontColor=#000000;align=center;" vertex="1" parent="llm-Sv5bOsCH1gsNNvd9-420">
          <mxGeometry x="-40" y="-50" width="40" height="40" as="geometry" />
        </mxCell>
        <mxCell id="llm-Sv5bOsCH1gsNNvd9-437" value="09.20-09.24" style="whiteSpace=wrap;html=1;aspect=fixed;strokeColor=#D6D6D6;strokeWidth=1;fillColor=#FFFFFF;fontColor=#000000;align=center;" vertex="1" parent="1">
          <mxGeometry x="350" y="240" width="40" height="40" as="geometry" />
        </mxCell>
        <mxCell id="llm-Sv5bOsCH1gsNNvd9-438" value="09.27-10.09" style="whiteSpace=wrap;html=1;aspect=fixed;strokeColor=#D6D6D6;strokeWidth=1;fillColor=#FFFFFF;fontColor=#000000;align=center;" vertex="1" parent="1">
          <mxGeometry x="390" y="240" width="40" height="40" as="geometry" />
        </mxCell>
        <mxCell id="llm-Sv5bOsCH1gsNNvd9-439" value="10.11-10.15" style="whiteSpace=wrap;html=1;aspect=fixed;strokeColor=#D6D6D6;strokeWidth=1;fillColor=#FFFFFF;fontColor=#000000;align=center;" vertex="1" parent="1">
          <mxGeometry x="430" y="240" width="40" height="40" as="geometry" />
        </mxCell>
        <mxCell id="llm-Sv5bOsCH1gsNNvd9-440" value="10.18-10.22" style="whiteSpace=wrap;html=1;aspect=fixed;strokeColor=#D6D6D6;strokeWidth=1;fillColor=#FFFFFF;fontColor=#000000;align=center;" vertex="1" parent="1">
          <mxGeometry x="470" y="240" width="40" height="40" as="geometry" />
        </mxCell>
        <mxCell id="llm-Sv5bOsCH1gsNNvd9-441" value="10.25-10.29" style="whiteSpace=wrap;html=1;aspect=fixed;strokeColor=#D6D6D6;strokeWidth=1;fillColor=#FFFFFF;fontColor=#000000;align=center;" vertex="1" parent="1">
          <mxGeometry x="510" y="240" width="40" height="40" as="geometry" />
        </mxCell>
      </root>
    </mxGraphModel>
  </diagram>
</mxfile>
